<?xml version="1.0" encoding="UTF-8"?>
<svg xmlns="http://www.w3.org/2000/svg" xmlns:xlink="http://www.w3.org/1999/xlink" width="496pt" height="510pt" viewBox="0 0 496 510" version="1.1">
<g id="surface1">
<path style=" stroke:none;fill-rule:nonzero;fill:rgb(0%,58.822632%,84.313965%);fill-opacity:1;" d="M 227.308594 26.085938 L 152.613281 80.355469 L 181.144531 168.164062 L 273.472656 168.164062 L 302.003906 80.355469 Z "/>
<path style=" stroke:none;fill-rule:nonzero;fill:rgb(0%,58.822632%,84.313965%);fill-opacity:1;" d="M 319.589844 247.914062 L 272.988281 328.632812 L 335.351562 397.894531 L 420.496094 359.984375 L 410.753906 267.292969 Z "/>
<path style=" stroke:none;fill-rule:nonzero;fill:rgb(0%,58.822632%,84.313965%);fill-opacity:1;" d="M 135.027344 247.914062 L 43.863281 267.292969 L 34.121094 359.984375 L 119.265625 397.894531 L 181.628906 328.632812 Z "/>
<path style=" stroke:none;fill-rule:nonzero;fill:rgb(0%,19.607544%,27.450562%);fill-opacity:1;" d="M 273.597656 168.253906 L 181.023438 168.253906 L 134.734375 248.429688 L 181.023438 328.601562 L 273.597656 328.601562 L 319.882812 248.429688 Z "/>
<path style="fill:none;stroke-width:3.9851;stroke-linecap:butt;stroke-linejoin:miter;stroke:rgb(19.607544%,23.527527%,27.450562%);stroke-opacity:1;stroke-miterlimit:10;" d="M -226.809 2.83425 C -226.773844 2.83425 -226.742594 2.83425 -226.707438 2.83425 M -226.809 5.674094 C -226.742594 5.674094 -226.676188 5.674094 -226.609781 5.670187 M -226.773844 8.513937 C -226.676188 8.513937 -226.578531 8.510031 -226.476969 8.506125 M -226.711344 11.353781 C -226.578531 11.349875 -226.445719 11.342062 -226.312906 11.33425 M -226.609781 14.189719 C -226.445719 14.181906 -226.281656 14.174094 -226.117594 14.162375 M -226.480875 17.025656 C -226.281656 17.013937 -226.086344 17.002219 -225.887125 16.982687 M -226.312906 19.8655 C -226.086344 19.849875 -225.851969 19.830344 -225.625406 19.810812 M -226.117594 22.701437 C -225.851969 22.681906 -225.59025 22.658469 -225.328531 22.631125 M -225.883219 25.537375 C -225.59025 25.513937 -225.293375 25.482687 -225.000406 25.443625 M -225.6215 28.369406 C -225.293375 28.338156 -224.96525 28.299094 -224.637125 28.256125 M -225.320719 31.201437 C -224.961344 31.162375 -224.601969 31.1155 -224.242594 31.060812 M -224.988688 34.025656 C -224.598063 33.978781 -224.203531 33.924094 -223.812906 33.861594 M -224.625406 36.849875 C -224.199625 36.791281 -223.773844 36.728781 -223.351969 36.654562 M -224.226969 39.670187 C -223.769938 39.603781 -223.312906 39.525656 -222.859781 39.443625 M -223.797281 42.486594 C -223.305094 42.408469 -222.816813 42.322531 -222.332438 42.224875 M -223.332438 45.291281 C -222.812906 45.201437 -222.289469 45.103781 -221.773844 44.994406 M -222.832438 48.092062 C -222.281656 47.9905 -221.730875 47.881125 -221.184 47.760031 M -222.301188 50.888937 C -221.719156 50.775656 -221.137125 50.650656 -220.559 50.517844 M -221.738688 53.681906 C -221.125406 53.553 -220.512125 53.416281 -219.90275 53.263937 M -221.141031 56.467062 C -220.4965 56.326437 -219.851969 56.170187 -219.211344 56.006125 M -220.508219 59.248312 C -219.832438 59.092062 -219.160563 58.920187 -218.492594 58.7405 M -219.844156 62.017844 C -219.141031 61.845969 -218.437906 61.658469 -217.738688 61.463156 M -219.148844 64.783469 C -218.414469 64.592062 -217.680094 64.388937 -216.953531 64.174094 M -218.422281 67.541281 C -217.656656 67.330344 -216.891031 67.111594 -216.133219 66.877219 M -217.656656 70.287375 C -216.859781 70.064719 -216.070719 69.822531 -215.285563 69.572531 M -216.859781 73.029562 C -216.039469 72.783469 -215.219156 72.525656 -214.40275 72.252219 M -216.035563 75.760031 C -215.180094 75.494406 -214.332438 75.217062 -213.488688 74.920187 M -215.168375 78.482687 C -214.289469 78.197531 -213.414469 77.89675 -212.547281 77.58425 M -214.27775 81.193625 C -213.3715 80.888937 -212.46525 80.564719 -211.570719 80.228781 M -213.355875 83.89675 C -212.418375 83.568625 -211.484781 83.224875 -210.562906 82.8655 M -212.394938 86.58425 C -211.434 86.232687 -210.476969 85.869406 -209.52775 85.486594 M -211.406656 89.263937 C -210.418375 88.892844 -209.434 88.502219 -208.457438 88.095969 M -210.387125 91.931906 C -209.3715 91.533469 -208.359781 91.119406 -207.355875 90.685812 M -209.332438 94.58425 C -208.289469 94.166281 -207.254313 93.724875 -206.230875 93.27175 M -208.250406 97.228781 C -207.184 96.783469 -206.1215 96.318625 -205.066813 95.83425 M -207.129313 99.857687 C -206.039469 99.388937 -204.953531 98.89675 -203.883219 98.388937 M -205.984781 102.478781 C -204.8715 101.978781 -203.758219 101.463156 -202.660563 100.924094 M -204.805094 105.080344 C -203.664469 104.556906 -202.531656 104.013937 -201.414469 103.451437 M -203.598063 107.674094 C -202.434 107.123312 -201.273844 106.549094 -200.133219 105.955344 M -202.351969 110.252219 C -201.168375 109.674094 -199.988688 109.072531 -198.824625 108.451437 M -201.086344 112.818625 C -199.875406 112.20925 -198.672281 111.576437 -197.484781 110.928 M -199.781656 115.361594 C -198.551188 114.724875 -197.328531 114.064719 -196.1215 113.385031 M -198.453531 117.900656 C -197.199625 117.232687 -195.953531 116.541281 -194.723063 115.826437 M -197.086344 120.416281 C -195.812906 119.717062 -194.551188 118.998312 -193.305094 118.256125 M -195.699625 122.920187 C -194.40275 122.189719 -193.117594 121.435812 -191.848063 120.658469 M -194.273844 125.404562 C -192.961344 124.64675 -191.656656 123.857687 -190.3715 123.053 M -192.828531 127.881125 C -191.492594 127.08425 -190.164469 126.263937 -188.859781 125.420187 M -191.344156 130.330344 C -189.992594 129.502219 -188.648844 128.650656 -187.328531 127.775656 M -189.836344 132.763937 C -188.46525 131.904562 -187.105875 131.017844 -185.769938 130.111594 M -188.301188 135.185812 C -186.910563 134.291281 -185.531656 133.369406 -184.172281 132.424094 M -186.730875 137.588156 C -185.324625 136.658469 -183.934 135.701437 -182.559 134.720969 M -185.137125 139.967062 C -183.71525 139.002219 -182.305094 138.013937 -180.918375 137.002219 M -183.512125 142.330344 C -182.074625 141.330344 -180.65275 140.306906 -179.254313 139.260031 M -181.867594 144.678 C -180.414469 143.638937 -178.973063 142.576437 -177.551188 141.486594 M -180.187906 147.006125 C -178.719156 145.931906 -177.262125 144.830344 -175.832438 143.705344 M -178.476969 149.310812 C -176.9965 148.201437 -175.531656 147.064719 -174.086344 145.904562 M -176.742594 151.599875 C -175.250406 150.451437 -173.769938 149.275656 -172.316813 148.080344 M -174.980875 153.8655 C -173.476969 152.681906 -171.984781 151.467062 -170.519938 150.232687 M -173.195719 156.111594 C -171.676188 154.888937 -170.176188 153.638937 -168.699625 152.361594 M -171.379313 158.338156 C -169.851969 157.076437 -168.34025 155.783469 -166.855875 154.470969 M -169.543375 160.541281 C -168.004313 159.2405 -166.480875 157.908469 -164.988688 156.556906 M -167.680094 162.724875 C -166.129313 161.385031 -164.598063 160.013937 -163.094156 158.619406 M -165.789469 164.885031 C -164.230875 163.506125 -162.687906 162.092062 -161.180094 160.658469 M -163.8715 167.029562 C -162.301188 165.607687 -160.754313 164.154562 -159.234781 162.678 M -161.918375 169.142844 C -160.348063 167.685812 -158.797281 166.193625 -157.27775 164.681906 M -159.949625 171.244406 C -158.3715 169.744406 -156.812906 168.20925 -155.285563 166.654562 M -157.953531 173.318625 C -156.3715 171.775656 -154.805094 170.201437 -153.27775 168.603781 M -155.934 175.3655 C -154.344156 173.783469 -152.77775 172.170187 -151.2465 170.537375 M -153.898844 177.404562 C -152.297281 175.775656 -150.723063 174.111594 -149.184 172.428 M -151.828531 179.404562 C -150.226969 177.736594 -148.648844 176.033469 -147.109781 174.306906 M -149.738688 181.381125 C -148.133219 179.670187 -146.559 177.924094 -145.016031 176.158469 M -147.625406 183.33425 C -146.019938 181.580344 -144.441813 179.791281 -142.90275 177.982687 M -145.488688 185.260031 C -143.883219 183.463156 -142.305094 181.635031 -140.766031 179.783469 M -143.332438 187.166281 C -141.726969 185.326437 -140.148844 183.451437 -138.609781 181.556906 M -141.148844 189.045187 C -139.547281 187.162375 -137.969156 185.244406 -136.430094 183.306906 M -138.945719 190.900656 C -137.344156 188.974875 -135.766031 187.010031 -134.230875 185.029562 M -136.723063 192.732687 C -135.117594 190.760031 -133.547281 188.752219 -132.012125 186.724875 M -134.473063 194.541281 C -132.8715 192.52175 -131.301188 190.467062 -129.773844 188.392844 M -132.203531 196.322531 C -130.605875 194.256125 -129.039469 192.154562 -127.512125 190.037375 M -129.914469 198.076437 C -128.316813 195.963156 -126.754313 193.818625 -125.234781 191.650656 M -127.594156 199.787375 C -126.012125 197.638937 -124.457438 195.455344 -122.949625 193.252219 M -125.266031 201.4905 C -123.687906 199.291281 -122.141031 197.060812 -120.637125 194.810812 M -122.918375 203.166281 C -121.34025 200.920187 -119.801188 198.638937 -118.305094 196.342062 M -120.547281 204.814719 C -118.976969 202.517844 -117.441813 200.189719 -115.953531 197.842062 M -118.144938 206.420187 C -116.59025 204.088156 -115.070719 201.720969 -113.594156 199.33425 M -115.738688 208.013937 C -114.187906 205.631125 -112.676188 203.213156 -111.211344 200.779562 M -113.312906 209.576437 C -111.769938 207.14675 -110.266031 204.678 -108.812906 202.193625 M -110.855875 211.099875 C -109.328531 208.627219 -107.844156 206.123312 -106.40275 203.599875 M -108.391031 212.607687 C -106.875406 210.08425 -105.398844 207.529562 -103.973063 204.955344 M -105.90275 214.072531 C -104.40275 211.510031 -102.945719 208.912375 -101.535563 206.299094 M -103.40275 215.525656 C -101.914469 212.912375 -100.469156 210.263937 -99.070719 207.599875 M -100.879313 216.928 C -99.406656 214.275656 -97.980875 211.588156 -96.605875 208.885031 M -98.344156 218.322531 C -96.887125 215.6155 -95.473063 212.877219 -94.113688 210.123312 M -95.785563 219.670187 C -94.348063 216.924094 -92.953531 214.14675 -91.613688 211.349875 M -93.219156 221.006125 C -91.797281 218.205344 -90.418375 215.377219 -89.094156 212.529562 M -90.629313 222.291281 C -89.226969 219.455344 -87.8715 216.580344 -86.570719 213.693625 M -88.031656 223.564719 C -86.648844 220.674094 -85.309 217.752219 -84.023844 214.810812 M -85.410563 224.795187 C -84.047281 221.861594 -82.734781 218.89675 -81.473063 215.916281 M -82.77775 226.006125 C -81.434 223.02175 -80.141031 220.006125 -78.90275 216.974875 M -80.129313 227.174094 C -78.809 224.14675 -77.539469 221.088156 -76.324625 218.017844 M -77.461344 228.310812 C -76.168375 225.2405 -74.922281 222.138937 -73.734781 219.029562 M -74.789469 229.428 C -73.516031 226.306906 -72.293375 223.154562 -71.129313 219.994406 M -72.094156 230.502219 C -70.848063 227.338156 -69.65275 224.14675 -68.519938 220.943625 M -69.391031 231.545187 C -68.172281 228.338156 -67.004313 225.103781 -65.898844 221.857687 M -66.680094 232.568625 C -65.484781 229.310812 -64.344156 226.025656 -63.262125 222.728781 M -63.949625 233.545187 C -62.781656 230.248312 -61.672281 226.920187 -60.6215 223.58425 M -61.207438 234.4905 C -60.070719 231.150656 -58.992594 227.783469 -57.973063 224.404562 M -58.457438 235.420187 C -57.348063 232.029562 -56.293375 228.607687 -55.305094 225.181906 M -55.691813 236.299094 C -54.613688 232.869406 -53.594156 229.408469 -52.637125 225.939719 M -52.918375 237.14675 C -51.8715 233.674094 -50.883219 230.174094 -49.961344 226.666281 M -50.137125 237.974875 C -49.1215 234.451437 -48.164469 230.900656 -47.273844 227.345969 M -47.34025 238.760031 C -46.359781 235.193625 -45.437906 231.603781 -44.582438 228.006125 M -44.535563 239.510031 C -43.59025 235.904562 -42.703531 232.27175 -41.883219 228.635031 M -41.723063 240.228781 C -40.809 236.580344 -39.961344 232.908469 -39.176188 229.232687 M -38.90275 240.924094 C -38.02775 237.228781 -37.211344 233.506125 -36.46525 229.783469 M -36.070719 241.572531 C -35.230875 237.838156 -34.453531 234.080344 -33.742594 230.318625 M -33.226969 242.193625 C -32.426188 238.416281 -31.687906 234.619406 -31.016031 230.818625 M -30.379313 242.775656 C -29.617594 238.963156 -28.918375 235.123312 -28.285563 231.283469 M -27.52775 243.338156 C -26.801188 239.474875 -26.141031 235.592062 -25.551188 231.70925 M -24.668375 243.853781 C -23.980875 239.955344 -23.363688 236.033469 -22.812906 232.111594 M -21.801188 244.338156 C -21.156656 240.400656 -20.578531 236.439719 -20.070719 232.478781 M -18.926188 244.787375 C -18.324625 240.810812 -17.789469 236.810812 -17.324625 232.814719 M -16.047281 245.205344 C -15.488688 241.189719 -14.9965 237.150656 -14.578531 233.119406 M -13.164469 245.595969 C -12.648844 241.537375 -12.199625 237.455344 -11.824625 233.385031 M -10.27775 245.943625 C -9.805094 241.845969 -9.398844 237.732687 -9.070719 233.623312 M -7.383219 246.260031 C -6.953531 242.127219 -6.598063 237.974875 -6.312906 233.830344 M -4.484781 246.541281 C -4.101969 242.369406 -3.789469 238.181906 -3.555094 234.002219 M -1.582438 246.787375 C -1.2465 242.58425 -0.980875 238.357687 -0.793375 234.142844 M 1.319906 247.002219 C 1.612875 242.760031 1.827719 238.502219 1.97225 234.252219 M 4.230062 247.185812 C 4.47225 242.908469 4.644125 238.611594 4.733969 234.326437 M 7.136312 247.33425 C 7.331625 243.017844 7.452719 238.689719 7.495687 234.369406 M 10.046469 247.447531 C 10.191 243.095969 10.261312 238.732687 10.257406 234.385031 M 12.960531 247.525656 C 13.054281 243.142844 13.077719 238.748312 13.019125 234.3655 M 15.47225 247.576437 C 15.526937 243.158469 15.5035 238.728781 15.401937 234.314719 M 18.386312 247.592062 C 18.390219 243.142844 18.312094 238.681906 18.15975 234.232687 M 21.300375 247.576437 C 21.249594 243.095969 21.120687 238.599875 20.917562 234.123312 M 24.214437 247.525656 C 24.108969 243.013937 23.929281 238.486594 23.671469 233.978781 M 27.132406 247.443625 C 26.976156 242.89675 26.737875 238.342062 26.425375 233.803 M 30.046469 247.326437 C 29.835531 242.748312 29.546469 238.162375 29.175375 233.595969 M 32.960531 247.178 C 32.694906 242.568625 32.351156 237.951437 31.921469 233.353781 M 35.874594 246.9905 C 35.554281 242.353781 35.148031 237.705344 34.667562 233.080344 M 38.78475 246.77175 C 38.405844 242.103781 37.944906 237.428 37.401937 232.775656 M 41.694906 246.513937 C 41.257406 241.822531 40.737875 237.123312 40.136312 232.447531 M 44.601156 246.228781 C 44.105062 241.506125 43.526937 236.779562 42.866781 232.076437 M 47.5035 245.908469 C 46.948812 241.158469 46.308187 236.404562 45.589437 231.678 M 50.401937 245.553 C 49.788656 240.775656 49.089437 235.994406 48.308187 231.244406 M 53.300375 245.162375 C 52.624594 240.361594 51.862875 235.553 51.019125 230.775656 M 56.191 244.728781 C 55.452719 239.908469 54.6285 235.08425 53.726156 230.291281 M 59.081625 244.27175 C 58.280844 239.424094 57.394125 234.576437 56.425375 229.760031 M 61.964437 243.783469 C 61.101156 238.908469 60.151937 234.037375 59.116781 229.197531 M 64.843344 243.256125 C 63.917562 238.361594 62.901937 233.467062 61.804281 228.603781 M 67.718344 242.697531 C 66.726156 237.779562 65.644125 232.861594 64.480062 227.978781 M 70.581625 242.092062 C 69.523031 237.158469 68.3785 232.228781 67.151937 227.33425 M 73.441 241.467062 C 72.316 236.510031 71.105062 231.560812 69.808187 226.64675 M 76.292562 240.806906 C 75.101156 235.830344 73.823812 230.857687 72.460531 225.924094 M 79.136312 240.095969 C 77.882406 235.107687 76.53475 230.131125 75.108969 225.189719 M 81.968344 239.369406 C 80.648031 234.361594 79.233969 229.3655 77.737875 224.408469 M 84.800375 238.607687 C 83.405844 233.58425 81.921469 228.564719 80.355062 223.592062 M 87.620687 237.814719 C 86.15975 232.767844 84.605062 227.736594 82.968344 222.744406 M 90.429281 236.967062 C 88.901937 231.916281 87.280844 226.881125 85.577719 221.885031 M 93.230062 236.107687 C 91.632406 231.041281 89.937094 225.986594 88.163656 220.978781 M 96.026937 235.213156 C 94.355062 230.131125 92.589437 225.060812 90.741781 220.037375 M 98.800375 234.267844 C 97.062094 229.181906 95.226156 224.111594 93.312094 219.088156 M 101.573812 233.310812 C 99.761312 228.20925 97.851156 223.123312 95.862875 218.088156 M 104.335531 232.318625 C 102.448812 227.201437 100.468344 222.103781 98.405844 217.053 M 107.077719 231.27175 C 105.124594 226.154562 103.073812 221.060812 100.941 216.017844 M 109.819906 230.213156 C 107.788656 225.08425 105.663656 219.978781 103.452719 214.924094 M 112.53475 229.099875 C 110.437094 223.974875 108.241781 218.873312 105.964437 213.826437 M 115.2535 227.982687 C 113.077719 222.845969 110.804281 217.732687 108.448812 212.674094 M 117.956625 226.830344 C 115.702719 221.681906 113.351156 216.556906 110.917562 211.4905 M 120.632406 225.619406 C 118.312094 220.478781 115.890219 215.361594 113.390219 210.303 M 123.312094 224.408469 C 120.90975 219.256125 118.40975 214.127219 115.827719 209.060812 M 125.956625 223.135031 C 123.483969 217.9905 120.913656 212.877219 118.265219 207.822531 M 128.605062 221.861594 C 126.054281 216.705344 123.405844 211.580344 120.671469 206.52175 M 131.226156 220.525656 C 128.601156 215.381125 125.882406 210.27175 123.081625 205.220969 M 133.843344 219.189719 C 131.136312 214.037375 128.335531 208.920187 125.452719 203.8655 M 136.429281 217.791281 C 133.655844 212.654562 130.780844 207.549094 127.827719 202.510031 M 139.019125 216.39675 C 136.15975 211.252219 133.202719 206.138937 130.163656 201.095969 M 141.573812 214.939719 C 138.640219 209.806906 135.612875 204.713156 132.5035 199.685812 M 144.112875 213.451437 C 141.108969 208.33425 138.007406 203.256125 134.827719 198.244406 M 146.651937 211.970969 C 143.566 206.845969 140.3785 201.760031 137.112875 196.744406 M 149.155844 210.424094 C 145.995687 205.314719 142.733969 200.248312 139.398031 195.252219 M 151.667562 208.881125 C 148.417562 203.767844 145.069906 198.693625 141.644125 193.697531 M 154.136312 207.275656 C 150.816 202.178 147.394125 197.127219 143.898031 192.150656 M 156.589437 205.642844 C 153.191 200.564719 149.698812 195.533469 146.124594 190.576437 M 159.019125 203.982687 C 155.550375 198.924094 151.980062 193.908469 148.335531 188.974875 M 161.456625 202.330344 C 157.894125 197.267844 154.233969 192.252219 150.499594 187.314719 M 163.855062 200.6155 C 160.218344 195.568625 156.480062 190.572531 152.671469 185.658469 M 166.230062 198.869406 C 162.519125 193.845969 158.706625 188.869406 154.819906 183.978781 M 168.589437 197.099875 C 164.800375 192.092062 160.913656 187.142844 156.948812 182.27175 M 170.925375 195.303 C 167.058187 190.318625 163.093344 185.388937 159.058187 180.541281 M 173.241781 193.478781 C 169.300375 188.513937 165.257406 183.607687 161.140219 178.783469 M 175.538656 191.627219 C 171.515219 186.685812 167.394125 181.803 163.202719 177.002219 M 177.816 189.756125 C 173.710531 184.83425 169.511312 179.970969 165.241781 175.197531 M 180.069906 187.853781 C 175.886312 182.955344 171.608969 178.119406 167.257406 173.369406 M 182.304281 185.931906 C 178.038656 181.053 173.679281 176.2405 169.249594 171.513937 M 184.515219 183.982687 C 180.171469 179.127219 175.730062 174.33425 171.214437 169.635031 M 186.714437 182.006125 C 182.28475 177.174094 177.757406 172.404562 173.163656 167.728781 M 188.855062 179.970969 C 184.362875 175.181906 179.776937 170.45925 175.120687 165.83425 M 191.007406 177.943625 C 186.429281 173.178 181.757406 168.482687 177.019125 163.877219 M 193.116781 175.877219 C 188.468344 171.14675 183.72225 166.486594 178.90975 161.920187 M 195.237875 173.814719 C 190.495687 169.099875 185.651937 164.455344 180.745687 159.908469 M 197.304281 171.697531 C 192.483969 167.02175 187.569906 162.416281 182.593344 157.908469 M 199.343344 169.556906 C 194.452719 164.916281 189.464437 160.349875 184.413656 155.885031 M 201.358969 167.39675 C 196.390219 162.795187 191.327719 158.267844 186.202719 153.842062 M 203.34725 165.213156 C 198.304281 160.650656 193.167562 156.162375 187.968344 151.779562 M 205.316 163.006125 C 200.194906 158.482687 194.983969 154.037375 189.706625 149.693625 M 207.261312 160.779562 C 202.062094 156.295187 196.773031 151.888937 191.421469 147.588156 M 209.179281 158.529562 C 203.901937 154.08425 198.53475 149.717062 193.108969 145.45925 M 211.073812 156.260031 C 205.718344 151.849875 200.273031 147.525656 194.765219 143.310812 M 212.944906 153.963156 C 207.511312 149.595969 201.983969 145.314719 196.401937 141.138937 M 214.792562 151.64675 C 209.276937 147.322531 203.671469 143.080344 198.007406 138.951437 M 216.612875 149.310812 C 211.015219 145.025656 205.327719 140.826437 199.585531 136.7405 M 218.362875 146.924094 C 212.714437 142.701437 206.97225 138.568625 201.179281 134.545187 M 220.132406 144.549094 C 214.398031 140.369406 208.573812 136.279562 202.698812 132.303 M 221.870687 142.150656 C 216.054281 138.017844 210.151937 133.970969 204.194906 130.041281 M 223.585531 139.732687 C 217.687094 135.642844 211.698812 131.642844 205.663656 127.760031 M 225.233969 137.263937 C 219.276937 133.2405 213.233969 129.303 207.144125 125.486594 M 226.890219 134.810812 C 220.851156 130.830344 214.726156 126.943625 208.554281 123.174094 M 228.523031 132.33425 C 222.398031 128.400656 216.191 124.564719 209.933187 120.845969 M 230.081625 129.810812 C 223.905844 125.943625 217.640219 122.174094 211.327719 118.52175 M 231.65975 127.295187 C 225.394125 123.478781 219.046469 119.756125 212.655844 116.158469 M 233.163656 124.7405 C 226.843344 120.986594 220.437094 117.33425 213.991781 113.806906 M 234.679281 122.189719 C 228.276937 118.486594 221.788656 114.888937 215.257406 111.412375 M 236.171469 119.6155 C 229.679281 115.967062 223.108969 112.424094 216.495687 109.006125 M 237.585531 117.010031 C 231.038656 113.431906 224.40975 109.955344 217.741781 106.607687 M 239.015219 114.404562 C 232.382406 110.881125 225.671469 107.463156 218.921469 104.170187 M 240.374594 111.760031 C 233.687094 108.306906 226.917562 104.95925 220.112875 101.7405 M 241.741781 109.123312 C 234.968344 105.724875 228.116781 102.439719 221.230062 99.279562 M 243.038656 106.447531 C 236.210531 103.123312 229.304281 99.908469 222.362875 96.822531 M 244.308187 103.760031 C 237.417562 100.506125 230.456625 97.3655 223.460531 94.357687 M 245.581625 101.072531 C 238.612875 97.881125 231.566 94.803 224.487875 91.857687 M 246.78475 98.353781 C 239.757406 95.236594 232.65975 92.236594 225.526937 89.3655 M 247.995687 95.635031 C 240.890219 92.58425 233.706625 89.64675 226.495687 86.845969 M 249.140219 92.892844 C 241.97225 89.916281 234.737875 87.053 227.47225 84.330344 M 250.249594 90.131125 C 243.030844 87.228781 235.737875 84.447531 228.417562 81.799094 M 251.362875 87.369406 C 244.062094 84.537375 236.691 81.826437 229.296469 79.248312 M 252.40975 84.580344 C 245.054281 81.826437 237.6285 79.193625 230.179281 76.701437 M 253.425375 81.783469 C 246.015219 79.107687 238.53475 76.556906 231.030844 74.142844 M 254.441 78.986594 C 246.952719 76.381125 239.394125 73.904562 231.819906 71.564719 M 255.390219 76.162375 C 247.84725 73.638937 240.237875 71.244406 232.608969 68.986594 M 256.308187 73.326437 C 248.706625 70.888937 241.046469 68.572531 233.366781 66.400656 M 257.22225 70.486594 C 249.550375 68.123312 241.816 65.888937 234.066 63.795187 M 258.073812 67.631125 C 250.34725 65.349875 242.562094 63.197531 234.761312 61.189719 M 258.890219 64.763937 C 251.112875 62.568625 243.273031 60.502219 235.425375 58.580344 M 259.671469 61.888937 C 251.843344 59.779562 243.952719 57.799094 236.054281 55.963156 M 260.452719 59.006125 C 252.550375 56.978781 244.593344 55.080344 236.6285 53.330344 M 261.167562 56.111594 C 253.218344 54.166281 245.210531 52.361594 237.198812 50.697531 M 261.851156 53.205344 C 253.851156 51.349875 245.796469 49.631125 237.733969 48.060812 M 262.499594 50.295187 C 254.448812 48.529562 246.34725 46.900656 238.237875 45.416281 M 263.136312 47.381125 C 255.023031 45.701437 246.855062 44.158469 238.691 42.763937 M 263.718344 44.455344 C 255.554281 42.8655 247.343344 41.416281 239.1285 40.1155 M 264.265219 41.517844 C 256.054281 40.02175 247.796469 38.662375 239.538656 37.451437 M 264.776937 38.572531 C 256.519125 37.166281 248.218344 35.904562 239.917562 34.787375 M 265.2535 35.623312 C 256.952719 34.310812 248.605062 33.138937 240.261312 32.119406 M 265.714437 32.670187 C 257.358969 31.451437 248.956625 30.373312 240.562094 29.443625 M 266.124594 29.70925 C 257.72225 28.58425 249.280844 27.599875 240.843344 26.767844 M 266.499594 26.7405 C 258.054281 25.713156 249.569906 24.826437 241.093344 24.092062 M 266.839437 23.77175 C 258.355062 22.838156 249.827719 22.049094 241.312094 21.412375 M 267.148031 20.795187 C 258.616781 19.95925 250.050375 19.267844 241.499594 18.728781 M 267.425375 17.822531 C 258.851156 17.080344 250.237875 16.486594 241.644125 16.045187 M 267.663656 14.845969 C 259.050375 14.201437 250.398031 13.705344 241.769125 13.3655 M 267.866781 11.8655 C 259.214437 11.318625 250.526937 10.924094 241.858969 10.681906 M 268.03475 8.881125 C 259.343344 8.435812 250.620687 8.138937 241.917562 7.994406 M 268.167562 5.892844 C 259.441 5.545187 250.683187 5.349875 241.948812 5.306906 M 268.269125 2.904562 C 259.5035 2.654562 250.710531 2.560812 241.944906 2.619406 M 268.331625 -0.0837188 C 259.53475 -0.22825 250.706625 -0.224344 241.90975 -0.0641875 M 268.362875 -3.075906 C 259.530844 -3.122781 250.671469 -3.013406 241.843344 -2.751688 M 268.362875 -6.068094 C 259.495687 -6.013406 250.605062 -5.798563 241.745687 -5.435281 M 268.323812 -9.060281 C 259.425375 -8.900125 250.5035 -8.583719 241.616781 -8.114969 M 268.2535 -12.052469 C 259.323812 -11.786844 250.370687 -11.364969 241.456625 -10.79075 M 268.148031 -15.044656 C 259.187094 -14.673563 250.206625 -14.146219 241.265219 -13.462625 M 267.999594 -18.032938 C 259.015219 -17.556375 250.011312 -16.919656 241.050375 -16.130594 M 267.823812 -21.025125 C 258.812094 -20.443094 249.78475 -19.697 240.796469 -18.802469 M 267.616781 -24.017313 C 258.573812 -23.325906 249.519125 -22.474344 240.511312 -21.466531 M 267.370687 -27.005594 C 258.304281 -26.204813 249.226156 -25.243875 240.191 -24.126688 M 267.089437 -29.993875 C 257.999594 -29.083719 248.898031 -28.0095 239.843344 -26.782938 M 266.776937 -32.97825 C 257.65975 -31.954813 248.53475 -30.771219 239.460531 -29.431375 M 266.40975 -35.954813 C 257.28475 -34.825906 248.148031 -33.529031 239.066 -32.079813 M 266.026937 -38.935281 C 256.8785 -37.689188 247.72225 -36.279031 238.624594 -34.716531 M 265.608969 -41.907938 C 256.437094 -40.548563 247.265219 -39.029031 238.148031 -37.349344 M 265.155844 -44.876688 C 255.964437 -43.407938 246.773031 -41.767313 237.640219 -39.97825 M 264.640219 -47.841531 C 255.448812 -46.255594 246.257406 -44.505594 237.1285 -42.60325 M 264.120687 -50.794656 C 254.90975 -49.095438 245.702719 -47.22825 236.558187 -45.208719 M 263.562094 -53.747781 C 254.335531 -51.931375 245.116781 -49.947 235.960531 -47.810281 M 262.97225 -56.693094 C 253.730062 -54.7595 244.495687 -52.657938 235.327719 -50.404031 M 262.34725 -59.6345 C 253.089437 -57.583719 243.843344 -55.364969 234.663656 -52.989969 M 261.651937 -62.560281 C 252.405844 -60.396219 243.167562 -58.064188 234.0035 -55.575906 M 260.960531 -65.482156 C 251.698812 -63.200906 242.452719 -60.747781 233.280844 -58.142313 M 260.230062 -68.400125 C 250.960531 -65.997781 241.706625 -63.427469 232.523031 -60.700906 M 259.433187 -71.302469 C 250.175375 -68.782938 240.937094 -66.099344 231.773031 -63.2595 M 258.636312 -74.204813 C 249.370687 -71.568094 240.124594 -68.7595 230.956625 -65.798563 M 257.804281 -77.095438 C 248.530844 -74.337625 239.280844 -71.407938 230.108969 -68.325906 M 256.941 -79.982156 C 247.65975 -77.099344 238.405844 -74.044656 229.230062 -70.841531 M 255.999594 -82.845438 C 246.741781 -79.849344 237.511312 -76.681375 228.358969 -73.361063 M 255.069906 -85.708719 C 245.808187 -82.587625 236.569906 -79.294656 227.421469 -75.85325 M 254.105062 -88.564188 C 244.839437 -85.318094 235.601156 -81.904031 226.452719 -78.337625 M 253.066 -91.388406 C 243.823812 -88.029031 234.616781 -84.497781 225.495687 -80.818094 M 252.03475 -94.220438 C 242.792562 -90.736063 233.585531 -87.079813 224.468344 -83.275125 M 250.925375 -97.017313 C 241.714437 -93.419656 232.538656 -89.654031 223.456625 -85.736063 M 249.831625 -99.825906 C 240.616781 -96.10325 231.444906 -92.208719 222.366781 -88.161844 M 248.706625 -102.622781 C 239.491781 -98.771219 230.319906 -94.747781 221.249594 -90.575906 M 247.495687 -105.3845 C 238.316 -101.419656 229.183187 -97.282938 220.151937 -92.997781 M 246.304281 -108.154031 C 237.1285 -104.060281 227.999594 -99.794656 218.97225 -95.380594 M 245.030844 -110.888406 C 235.890219 -106.681375 226.804281 -102.302469 217.816 -97.779031 M 243.776937 -113.630594 C 234.644125 -109.294656 225.558187 -104.782938 216.581625 -100.130594 M 242.437094 -116.333719 C 233.343344 -111.8845 224.304281 -107.263406 215.370687 -102.497781 M 241.120687 -119.052469 C 232.030844 -114.470438 222.999594 -109.716531 214.077719 -104.818094 M 239.718344 -121.720438 C 230.671469 -117.029031 221.687094 -112.161844 212.812094 -107.154031 M 238.339437 -124.411844 C 229.300375 -119.583719 220.323812 -114.583719 211.460531 -109.443094 M 236.874594 -127.048563 C 227.882406 -122.111063 218.952719 -116.997781 210.136312 -111.747781 M 235.441 -129.704813 C 226.452719 -124.630594 217.530844 -119.3845 208.730062 -113.997781 M 233.913656 -132.314188 C 224.976156 -127.126688 216.105062 -121.767313 207.351156 -116.267313 M 232.358969 -134.904031 C 223.468344 -129.599344 214.648031 -124.130594 205.948812 -118.521219 M 230.831625 -137.5095 C 221.952719 -132.072 213.144125 -126.462625 204.456625 -120.716531 M 229.218344 -140.060281 C 220.390219 -134.5095 211.632406 -128.786844 202.999594 -122.931375 M 227.573812 -142.599344 C 218.796469 -136.935281 210.089437 -131.099344 201.515219 -125.130594 M 225.964437 -145.157938 C 217.194906 -139.35325 208.5035 -133.376688 199.941 -127.271219 M 224.265219 -147.657938 C 215.546469 -141.736063 206.90975 -135.650125 198.401937 -129.427469 M 222.538656 -150.1345 C 213.870687 -144.10325 205.288656 -137.900125 196.839437 -131.568094 M 220.78475 -152.595438 C 212.171469 -146.447 203.640219 -140.130594 195.245687 -133.685281 M 219.062094 -155.083719 C 210.460531 -148.79075 201.944906 -142.329813 193.566 -135.739969 M 217.249594 -157.5095 C 208.702719 -151.099344 200.241781 -144.521219 191.921469 -137.818094 M 215.413656 -159.91575 C 206.917562 -153.388406 198.515219 -146.693094 190.2535 -139.872781 M 213.550375 -162.298563 C 205.108969 -155.654031 196.761312 -148.845438 188.558187 -141.907938 M 211.663656 -164.661844 C 203.276937 -157.900125 194.983969 -150.970438 186.835531 -143.919656 M 209.749594 -167.005594 C 201.413656 -160.126688 193.179281 -153.075906 185.093344 -145.907938 M 207.812094 -169.329813 C 199.530844 -162.329813 191.351156 -155.161844 183.319906 -147.872781 M 205.84725 -171.6345 C 197.620687 -164.5095 189.499594 -157.220438 181.526937 -149.814188 M 203.858969 -173.91575 C 195.687094 -166.669656 187.620687 -159.2595 179.706625 -151.732156 M 201.78475 -176.126688 C 193.706625 -168.79075 185.733969 -161.298563 177.917562 -153.685281 M 199.745687 -178.372781 C 191.72225 -170.911844 183.804281 -163.29075 176.046469 -155.556375 M 197.683187 -180.595438 C 189.710531 -173.0095 181.851156 -165.263406 174.148031 -157.404031 M 195.558187 -182.755594 C 187.663656 -175.068094 179.886312 -167.224344 172.269125 -159.267313 M 193.468344 -184.958719 C 185.616781 -177.126688 177.8785 -169.138406 170.304281 -161.04075 M 191.296469 -187.079813 C 183.523031 -179.142313 175.866781 -171.052469 168.374594 -162.849344 M 189.101156 -189.177469 C 181.40975 -181.1345 173.831625 -172.939188 166.421469 -164.6345 M 186.890219 -191.247781 C 179.273031 -183.099344 171.776937 -174.794656 164.448812 -166.3845 M 184.65975 -193.298563 C 177.120687 -185.04075 169.702719 -176.626688 162.456625 -168.111063 M 182.401937 -195.325906 C 174.941 -186.958719 167.605062 -178.435281 160.437094 -169.814188 M 180.1285 -197.325906 C 172.741781 -188.849344 165.483969 -180.220438 158.398031 -171.486063 M 177.827719 -199.306375 C 170.519125 -190.716531 163.343344 -181.974344 156.339437 -173.1345 M 175.5035 -201.263406 C 168.276937 -192.560281 161.179281 -183.704813 154.257406 -174.755594 M 173.15975 -203.193094 C 166.011312 -194.376688 158.995687 -185.411844 152.155844 -176.349344 M 170.796469 -205.099344 C 163.72225 -196.169656 156.788656 -187.091531 150.03475 -177.919656 M 168.40975 -206.982156 C 161.417562 -197.935281 154.562094 -188.743875 147.890219 -179.458719 M 165.995687 -208.841531 C 159.085531 -199.677469 152.316 -190.368875 145.730062 -180.970438 M 163.569906 -210.669656 C 156.741781 -201.388406 150.054281 -191.966531 143.554281 -182.454813 M 161.077719 -212.404031 C 154.358969 -203.052469 147.788656 -193.556375 141.405844 -183.97825 M 158.605062 -214.181375 C 151.97225 -204.712625 145.487875 -195.099344 139.191 -185.404031 M 156.116781 -215.931375 C 149.566 -206.341531 143.167562 -196.614969 136.960531 -186.806375 M 153.566 -217.583719 C 147.132406 -207.923563 140.851156 -198.122781 134.757406 -188.243875 M 151.038656 -219.275125 C 144.691 -209.497781 138.495687 -199.579813 132.495687 -189.583719 M 148.487875 -220.939188 C 142.230062 -211.044656 136.124594 -201.0095 130.214437 -190.900125 M 145.8785 -222.513406 C 139.737875 -212.54075 133.749594 -202.435281 127.956625 -192.255594 M 143.296469 -224.118875 C 137.241781 -214.029031 131.34725 -203.806375 125.648031 -193.5095 M 140.651937 -225.630594 C 134.714437 -215.466531 128.941 -205.169656 123.362875 -194.806375 M 138.026937 -227.181375 C 132.183187 -216.900125 126.5035 -206.486063 121.023031 -196.005594 M 135.351156 -228.6345 C 129.6285 -218.279031 124.066 -207.79075 118.706625 -197.243875 M 132.691 -230.122781 C 127.062094 -219.650125 121.601156 -209.048563 116.339437 -198.3845 M 129.980062 -231.517313 C 124.47225 -220.970438 119.1285 -210.298563 113.991781 -199.564188 M 127.288656 -232.943094 C 121.874594 -222.282938 116.636312 -211.493875 111.601156 -200.646219 M 124.542562 -234.279031 C 119.2535 -223.54075 114.136312 -212.681375 109.226156 -201.767313 M 121.816 -235.642313 C 116.6285 -224.79075 111.616781 -213.818094 106.812094 -202.79075 M 119.042562 -236.911844 C 113.980062 -225.989969 109.093344 -214.947 104.413656 -203.849344 M 116.276937 -238.216531 C 111.319906 -227.177469 106.542562 -216.025125 101.97225 -204.818094 M 113.476156 -239.423563 C 108.644125 -228.314188 103.991781 -217.091531 99.546469 -205.818094 M 110.655844 -240.60325 C 105.948812 -229.419656 101.425375 -218.126688 97.108969 -206.786844 M 107.84725 -241.802469 C 103.249594 -230.513406 98.839437 -219.111063 94.640219 -207.66575 M 105.007406 -242.91575 C 100.538656 -231.552469 96.2535 -220.083719 92.183187 -208.572 M 102.167562 -244.048563 C 97.812094 -232.583719 93.648031 -221.0095 89.694906 -209.396219 M 99.300375 -245.095438 C 95.073812 -233.560281 91.038656 -221.919656 87.218344 -210.239969 M 96.413656 -246.111063 C 92.319906 -234.505594 88.417562 -222.798563 84.730062 -211.056375 M 93.519125 -247.091531 C 89.554281 -235.419656 85.78475 -223.646219 82.233969 -211.841531 M 90.632406 -248.091531 C 86.788656 -236.318094 83.144125 -224.443094 79.714437 -212.544656 M 87.710531 -249.005594 C 84.0035 -237.16575 80.491781 -225.22825 77.198812 -213.267313 M 84.78475 -249.888406 C 81.206625 -237.982156 77.831625 -225.982156 74.675375 -213.958719 M 81.858969 -250.779031 C 78.40975 -238.779031 75.163656 -226.685281 72.136312 -214.572 M 78.905844 -251.591531 C 75.593344 -239.529031 72.483969 -227.376688 69.593344 -215.204813 M 75.944906 -252.372781 C 72.769125 -240.247781 69.800375 -228.032938 67.050375 -215.802469 M 72.976156 -253.114969 C 69.941 -240.931375 67.108969 -228.654031 64.499594 -216.368875 M 70.011312 -253.864969 C 67.105062 -241.591531 64.40975 -229.236063 61.933187 -216.868875 M 67.026937 -254.54075 C 64.261312 -242.208719 61.706625 -229.794656 59.370687 -217.372781 M 64.030844 -255.181375 C 61.405844 -242.79075 58.991781 -230.322 56.800375 -217.849344 M 61.026937 -255.79075 C 58.542562 -243.341531 56.273031 -230.818094 54.226156 -218.29075 M 58.023031 -256.392313 C 55.679281 -243.868875 53.546469 -231.271219 51.640219 -218.673563 M 55.007406 -256.927469 C 52.804281 -244.349344 50.816 -231.700906 49.058187 -219.052469 M 51.983969 -257.431375 C 49.925375 -244.798563 48.085531 -232.099344 46.468344 -219.404031 M 48.956625 -257.896219 C 47.042562 -245.212625 45.34725 -232.462625 43.8785 -219.720438 M 45.921469 -258.329813 C 44.155844 -245.595438 42.605062 -232.794656 41.28475 -220.0095 M 42.886312 -258.747781 C 41.261312 -245.950906 39.858969 -233.087625 38.683187 -220.243875 M 39.843344 -259.107156 C 38.366781 -246.263406 37.108969 -233.357156 36.081625 -220.470438 M 36.792562 -259.431375 C 35.464437 -246.54075 34.358969 -233.591531 33.480062 -220.66575 M 33.741781 -259.724344 C 32.562094 -246.786844 31.605062 -233.794656 30.874594 -220.825906 M 30.683187 -259.97825 C 29.651937 -247.001688 28.84725 -233.966531 28.269125 -220.958719 M 27.624594 -260.200906 C 26.741781 -247.177469 26.085531 -234.107156 25.65975 -221.060281 M 24.569906 -260.396219 C 23.835531 -247.325906 23.327719 -234.208719 23.050375 -221.122781 M 21.507406 -260.544656 C 20.925375 -247.435281 20.569906 -234.282938 20.444906 -221.161844 M 18.444906 -260.657938 C 18.011312 -247.513406 17.808187 -234.325906 17.835531 -221.173563 M 15.3785 -260.739969 C 15.09725 -247.556375 15.046469 -234.333719 15.226156 -221.154031 " transform="matrix(1,0,0,-1,227.309,248.428)"/>
</g>
</svg>
