<?xml version="1.0" encoding="UTF-8"?>
<svg xmlns="http://www.w3.org/2000/svg" xmlns:xlink="http://www.w3.org/1999/xlink" width="155pt" height="160pt" viewBox="0 0 155 160" version="1.1">
<g id="surface1">
<path style=" stroke:none;fill-rule:nonzero;fill:rgb(94.117647%,90.196078%,66.666667%);fill-opacity:1;" d="M 37.863281 35.746094 L 8.679688 59.214844 L 8.769531 96.734375 L 38.074219 120.054688 L 74.515625 111.613281 L 90.660156 77.769531 L 74.347656 44.007812 Z "/>
<path style=" stroke:none;fill-rule:nonzero;fill:rgb(70.588235%,0%,0%);fill-opacity:1;" d="M 21.621094 80.453125 L 28.867188 80.453125 C 32.253906 80.453125 35.335938 79.730469 37.34375 78.496094 C 40.011719 76.792969 41.757812 73.550781 41.757812 70.199219 C 41.757812 64.117188 36.824219 60.355469 28.914062 60.355469 L 11.859375 60.355469 L 11.859375 61.949219 L 13.144531 62.109375 C 15.8125 62.46875 16.484375 63.550781 16.484375 67.773438 L 16.484375 88.027344 C 16.484375 92.253906 15.8125 93.339844 13.144531 93.695312 L 11.859375 93.851562 L 11.859375 95.449219 L 26.859375 95.449219 L 26.859375 93.851562 L 24.960938 93.695312 C 22.390625 93.488281 21.621094 92.203125 21.621094 88.027344 Z M 21.621094 78.238281 L 21.621094 65.816406 C 21.621094 63.035156 22.546875 62.519531 27.480469 62.519531 C 30.96875 62.519531 33.074219 63.191406 34.5625 64.839844 C 35.847656 66.230469 36.515625 68.136719 36.515625 70.351562 C 36.515625 72.515625 35.847656 74.371094 34.5625 75.816406 C 33.027344 77.566406 31.125 78.238281 28.039062 78.238281 Z "/>
<path style=" stroke:none;fill-rule:nonzero;fill:rgb(70.588235%,0%,0%);fill-opacity:1;" d="M 66.980469 78.394531 C 70.164062 77.929688 71.605469 77.359375 73.296875 75.96875 C 75.355469 74.320312 76.488281 71.898438 76.488281 69.21875 C 76.488281 63.703125 72.015625 60.355469 64.617188 60.355469 L 43.707031 60.355469 L 43.707031 61.949219 L 44.992188 62.109375 C 47.664062 62.46875 48.332031 63.550781 48.332031 67.773438 L 48.332031 88.027344 C 48.332031 92.253906 47.664062 93.339844 44.992188 93.695312 L 43.707031 93.851562 L 43.707031 95.449219 L 58.660156 95.449219 L 58.660156 93.851562 L 56.808594 93.695312 C 54.1875 93.441406 53.46875 92.203125 53.46875 88.027344 L 53.46875 78.910156 L 60.867188 78.910156 L 72.425781 95.449219 L 81.003906 95.449219 L 81.003906 93.851562 C 78.488281 93.386719 77.101562 92.5625 75.511719 90.503906 Z M 53.46875 76.6875 L 53.46875 65.507812 C 53.46875 64.375 53.878906 63.703125 54.808594 63.292969 C 55.832031 62.828125 58.453125 62.46875 61.070312 62.46875 C 67.648438 62.46875 70.933594 64.785156 70.933594 69.425781 C 70.933594 71.691406 69.957031 73.753906 68.265625 75.09375 C 66.828125 76.230469 64.976562 76.6875 62.101562 76.6875 Z "/>
<path style=" stroke:none;fill-rule:nonzero;fill:rgb(0%,0%,0%);fill-opacity:1;" d="M 96.828125 67.773438 C 96.828125 63.5 97.390625 62.574219 100.164062 62.109375 L 101.195312 61.949219 L 101.195312 60.355469 L 87.320312 60.355469 L 87.320312 61.949219 L 88.351562 62.109375 C 91.125 62.574219 91.6875 63.5 91.6875 67.773438 L 91.6875 88.027344 C 91.6875 92.304688 91.125 93.234375 88.351562 93.695312 L 87.320312 93.851562 L 87.320312 95.449219 L 101.195312 95.449219 L 101.195312 93.851562 L 100.164062 93.695312 C 97.390625 93.234375 96.828125 92.304688 96.828125 88.027344 Z "/>
<path style=" stroke:none;fill-rule:nonzero;fill:rgb(0%,0%,0%);fill-opacity:1;" d="M 130.167969 60.355469 L 128.316406 60.355469 L 127.703125 62.210938 C 124.820312 60.457031 121.898438 59.683594 117.992188 59.683594 C 114.601562 59.683594 111.878906 60.511719 109.773438 62.15625 C 107.5625 63.910156 106.226562 66.4375 106.226562 68.910156 C 106.226562 70.917969 107.152344 73.085938 108.488281 74.476562 C 110.082031 76.070312 112.800781 77.3125 116.808594 78.339844 L 123.695312 80.09375 C 128.777344 81.328125 130.523438 82.875 130.523438 85.964844 C 130.523438 90.34375 126.519531 93.648438 121.226562 93.648438 C 115.320312 93.648438 110.128906 89.933594 106.535156 83.027344 L 104.636719 83.648438 L 107.972656 95.449219 L 109.875 95.449219 L 110.851562 92.871094 C 113.980469 95.085938 117.375 96.121094 121.480469 96.121094 C 129.5 96.121094 135.765625 91.222656 135.765625 85.039062 C 135.765625 83.183594 135.304688 81.226562 134.535156 80.039062 C 132.992188 77.566406 130.421875 76.175781 124.875 74.839844 L 118.453125 73.289062 C 113.46875 72.050781 111.46875 70.453125 111.46875 67.671875 C 111.46875 64.582031 114.753906 62.15625 119.015625 62.15625 C 123.949219 62.15625 128.058594 64.785156 131.65625 70.300781 L 133.296875 69.683594 Z "/>
<path style=" stroke:none;fill-rule:nonzero;fill:rgb(19.607843%,23.529412%,27.45098%);fill-opacity:1;" d="M 103.699219 109.683594 L 103.003906 109.359375 C 101.855469 110.984375 101.234375 111.683594 100.261719 112.40625 C 98.84375 113.484375 97.195312 114.082031 95.679688 114.082031 C 94.859375 114.082031 94.136719 113.832031 93.835938 113.460938 C 93.636719 113.210938 93.535156 112.710938 93.535156 111.960938 L 93.535156 101.617188 C 93.535156 99.59375 93.886719 98.992188 95.15625 98.867188 L 95.953125 98.789062 L 95.953125 98.015625 L 88.804688 98.015625 L 88.804688 98.789062 L 89.429688 98.867188 C 90.722656 99.039062 91.042969 99.5625 91.042969 101.617188 L 91.042969 111.433594 C 91.042969 113.484375 90.722656 114.007812 89.429688 114.183594 L 88.804688 114.257812 L 88.804688 115.03125 L 101.703125 115.03125 Z "/>
<path style=" stroke:none;fill-rule:nonzero;fill:rgb(19.607843%,23.529412%,27.45098%);fill-opacity:1;" d="M 111.976562 101.421875 L 110.121094 101.421875 L 106.691406 110.238281 C 105.359375 113.652344 105.035156 114.109375 103.703125 114.371094 L 103.484375 114.410156 L 103.484375 115.03125 L 108.824219 115.03125 L 108.824219 114.410156 C 108.109375 114.3125 107.765625 114.234375 107.550781 114.089844 C 107.25 113.890625 107.054688 113.53125 107.054688 113.171875 C 107.054688 112.871094 107.191406 112.3125 107.429688 111.691406 L 108.070312 109.976562 L 113.210938 109.976562 L 114.207031 112.554688 C 114.324219 112.890625 114.421875 113.253906 114.421875 113.410156 C 114.421875 113.695312 114.265625 113.953125 114.007812 114.109375 C 113.824219 114.253906 113.546875 114.3125 112.847656 114.410156 L 112.847656 115.03125 L 118.449219 115.03125 L 118.449219 114.410156 C 117.15625 114.214844 116.917969 113.992188 116.199219 112.132812 Z M 108.367188 109.113281 L 110.578125 103.121094 L 112.847656 109.113281 Z "/>
<path style=" stroke:none;fill-rule:nonzero;fill:rgb(19.607843%,23.529412%,27.45098%);fill-opacity:1;" d="M 119.625 101.421875 L 119.625 102.039062 L 120.125 102.101562 C 121.160156 102.238281 121.417969 102.660156 121.417969 104.300781 L 121.417969 112.152344 C 121.417969 113.792969 121.160156 114.214844 120.125 114.351562 L 119.625 114.410156 L 119.625 115.03125 L 126.898438 115.03125 C 129.109375 115.03125 130.484375 114.714844 131.5 113.972656 C 132.417969 113.3125 132.996094 112.171875 132.996094 111.015625 C 132.996094 109.875 132.4375 108.875 131.480469 108.277344 C 130.882812 107.894531 130.421875 107.714844 129.347656 107.453125 C 130.363281 107.214844 130.785156 107.019531 131.28125 106.617188 C 131.898438 106.15625 132.238281 105.4375 132.238281 104.65625 C 132.238281 103.660156 131.683594 102.699219 130.785156 102.179688 C 129.867188 101.640625 128.6875 101.421875 126.636719 101.421875 Z M 123.410156 107.175781 L 123.410156 103.898438 C 123.410156 102.457031 123.8125 102.199219 126.101562 102.199219 C 128.851562 102.199219 130.207031 103.015625 130.207031 104.714844 C 130.207031 106.476562 128.910156 107.175781 125.71875 107.175781 Z M 123.410156 108.039062 L 125.757812 108.039062 C 127.632812 108.039062 128.6875 108.136719 129.25 108.375 C 130.207031 108.796875 130.746094 109.710938 130.746094 110.914062 C 130.746094 111.910156 130.324219 112.851562 129.625 113.371094 C 128.871094 113.953125 127.710938 114.214844 126 114.214844 C 124.761719 114.214844 123.929688 113.992188 123.648438 113.574219 C 123.46875 113.3125 123.410156 112.929688 123.410156 111.957031 Z "/>
<path style="fill:none;stroke-width:3.9851;stroke-linecap:butt;stroke-linejoin:miter;stroke:rgb(19.607843%,23.529412%,27.45098%);stroke-opacity:1;stroke-miterlimit:10;" d="M -226.809 2.835383 C -226.7715 2.835383 -226.7465 2.835383 -226.709 2.835383 M -226.809 5.676477 C -226.7465 5.676477 -226.6715 5.676477 -226.609 5.664016 M -226.7715 8.51757 C -226.6715 8.51757 -226.584 8.505109 -226.4715 8.505109 M -226.709 11.358664 C -226.584 11.346203 -226.4465 11.346203 -226.309 11.333742 M -226.609 14.187297 C -226.4465 14.187297 -226.284 14.174836 -226.1215 14.162375 M -226.484 17.028391 C -226.284 17.01593 -226.084 17.003469 -225.884 16.978547 M -226.309 19.869484 C -226.084 19.844562 -225.8465 19.832102 -225.6215 19.80718 M -226.1215 22.698117 C -225.8465 22.685656 -225.584 22.660734 -225.334 22.635812 M -225.884 25.539211 C -225.584 25.514289 -225.2965 25.476906 -224.9965 25.439523 M -225.6215 28.367844 C -225.2965 28.342922 -224.959 28.293078 -224.634 28.255695 M -225.3215 31.196477 C -224.959 31.159094 -224.5965 31.121711 -224.2465 31.059406 M -224.984 34.025109 C -224.5965 33.975266 -224.209 33.925422 -223.809 33.863117 M -224.6215 36.853742 C -224.1965 36.791438 -223.7715 36.729133 -223.3465 36.654367 M -224.2215 39.669914 C -223.7715 39.607609 -223.309 39.520383 -222.859 39.445617 M -223.7965 42.486086 C -223.309 42.41132 -222.8215 42.324094 -222.334 42.224406 M -223.334 45.289797 C -222.809 45.20257 -222.284 45.102883 -221.7715 44.990734 M -222.834 48.093508 C -222.284 47.99382 -221.734 47.881672 -221.184 47.757062 M -222.2965 50.884758 C -221.7215 50.772609 -221.134 50.648 -220.559 50.523391 M -221.734 53.676008 C -221.1215 53.551398 -220.509 53.414328 -219.909 53.264797 M -221.1465 56.467258 C -220.4965 56.330187 -219.8465 56.168195 -219.209 56.006203 M -220.509 59.246047 C -219.834 59.096516 -219.159 58.922063 -218.4965 58.735148 M -219.8465 62.012375 C -219.1465 61.850383 -218.434 61.663469 -217.734 61.464094 M -219.1465 64.778703 C -218.409 64.591789 -217.684 64.392414 -216.959 64.168117 M -218.4215 67.545031 C -217.659 67.333195 -216.8965 67.108898 -216.134 66.872141 M -217.659 70.286438 C -216.859 70.062141 -216.0715 69.825383 -215.284 69.576164 M -216.859 73.027844 C -216.034 72.778625 -215.2215 72.529406 -214.409 72.255266 M -216.034 75.756789 C -215.184 75.495109 -214.334 75.220969 -213.484 74.921906 M -215.1715 78.485734 C -214.284 78.199133 -213.409 77.90007 -212.5465 77.588547 M -214.2715 81.189758 C -213.3715 80.890695 -212.459 80.566711 -211.5715 80.230266 M -213.359 83.893781 C -212.4215 83.569797 -211.484 83.220891 -210.559 82.859523 M -212.3965 86.585344 C -211.434 86.236437 -210.4715 85.87507 -209.534 85.488781 M -211.409 89.264445 C -210.4215 88.890617 -209.434 88.504328 -208.459 88.093117 M -210.384 91.931086 C -209.3715 91.532336 -208.359 91.121125 -207.359 90.684992 M -209.334 94.585266 C -208.284 94.161594 -207.259 93.725461 -206.234 93.276867 M -208.2465 97.226984 C -207.184 96.778391 -206.1215 96.317336 -205.0715 95.831359 M -207.134 99.856242 C -206.034 99.382727 -204.959 98.89675 -203.884 98.385852 M -205.984 102.473039 C -204.8715 101.974602 -203.759 101.463703 -202.659 100.927883 M -204.809 105.077375 C -203.659 104.554016 -202.534 104.018195 -201.409 103.457453 M -203.5965 107.66925 C -202.434 107.120969 -201.2715 106.547766 -200.134 105.949641 M -202.3465 110.248664 C -201.1715 109.675461 -199.984 109.077336 -198.8215 108.454289 M -201.084 112.815617 C -199.8715 112.205031 -198.6715 111.581984 -197.484 110.934016 M -199.784 115.357648 C -198.5465 114.722141 -197.334 114.061711 -196.1215 113.38882 M -198.459 117.89968 C -197.1965 117.226789 -195.959 116.541438 -194.7215 115.831164 M -197.084 120.416789 C -195.809 119.718977 -194.5465 118.996242 -193.309 118.261047 M -195.6965 122.921438 C -194.3965 122.186242 -193.1215 121.438586 -191.8465 120.653547 M -194.2715 125.401164 C -192.959 124.641047 -191.659 123.856008 -190.3715 123.058508 M -192.834 127.880891 C -191.4965 127.083391 -190.159 126.260969 -188.859 125.426086 M -191.3465 130.335695 C -189.9965 129.500812 -188.6465 128.653469 -187.334 127.781203 M -189.834 132.765578 C -188.459 131.905773 -187.109 131.021047 -185.7715 130.111398 M -188.2965 135.183 C -186.909 134.285813 -185.534 133.363703 -184.1715 132.429133 M -186.734 137.587961 C -185.3215 136.653391 -183.934 135.706359 -182.559 134.721945 M -185.134 139.968 C -183.709 138.996047 -182.309 138.011633 -180.9215 137.002297 M -183.509 142.335578 C -182.0715 141.326242 -180.6465 140.304445 -179.259 139.257727 M -181.8715 144.678234 C -180.409 143.643977 -178.9715 142.572336 -177.5465 141.488234 M -180.184 147.00843 C -178.7215 145.936789 -177.259 144.827766 -175.834 143.706281 M -178.4715 149.313703 C -176.9965 148.20468 -175.534 147.070734 -174.084 145.899406 M -176.7465 151.594055 C -175.2465 150.447648 -173.7715 149.27632 -172.3215 148.08007 M -174.984 153.861945 C -173.4715 152.678156 -171.984 151.469445 -170.5215 150.235813 M -173.1965 156.117375 C -171.6715 154.883742 -170.1715 153.637648 -168.6965 152.366633 M -171.384 158.335422 C -169.8465 157.076867 -168.334 155.78093 -166.859 154.472531 M -169.5465 160.541008 C -168.009 159.24507 -166.484 157.91175 -164.984 156.553508 M -167.684 162.721672 C -166.134 161.388352 -164.5965 160.017648 -163.0965 158.622023 M -165.784 164.889875 C -164.234 163.506711 -162.684 162.086164 -161.184 160.653156 M -163.8715 167.033156 C -162.2965 165.612609 -160.759 164.15468 -159.234 162.671828 M -161.9215 169.139055 C -160.3465 167.681125 -158.7965 166.198273 -157.2715 164.678039 M -159.9465 171.244953 C -158.3715 169.749641 -156.809 168.204484 -155.284 166.659328 M -157.959 173.313469 C -156.3715 171.780773 -154.809 170.198234 -153.2715 168.603234 M -155.934 175.369523 C -154.3465 173.786984 -152.7715 172.167063 -151.2465 170.53468 M -153.8965 177.400656 C -152.2965 175.780734 -150.7215 174.110969 -149.184 172.428742 M -151.834 179.406867 C -150.2215 177.737102 -148.6465 176.029953 -147.109 174.310344 M -149.734 181.375695 C -148.134 179.668547 -146.559 177.924016 -145.0215 176.154562 M -147.6215 183.332063 C -146.0215 181.57507 -144.4465 179.793156 -142.8965 177.98632 M -145.484 185.263508 C -143.884 183.469133 -142.309 181.637375 -140.7715 179.780695 M -143.334 187.170031 C -141.7215 185.325813 -140.1465 183.456672 -138.609 181.562609 M -141.1465 189.039172 C -139.5465 187.15757 -137.9715 185.238586 -136.434 183.307141 M -138.9465 190.895852 C -137.3465 188.976867 -135.7715 187.008039 -134.234 185.02675 M -136.7215 192.727609 C -135.1215 190.758781 -133.5465 188.75257 -132.009 186.721438 M -134.4715 194.546906 C -132.8715 192.515773 -131.2965 190.47218 -129.7715 188.391203 M -132.209 196.316359 C -130.609 194.260305 -129.034 192.154406 -127.509 190.036047 M -129.909 198.073352 C -128.3215 195.967453 -126.759 193.824172 -125.234 191.655969 M -127.5965 199.792961 C -126.009 197.637219 -124.459 195.456555 -122.9465 193.250969 M -125.2715 201.487648 C -123.684 199.294523 -122.1465 197.064016 -120.634 194.808586 M -122.9215 203.169875 C -121.334 200.914445 -119.7965 198.634094 -118.309 196.341281 M -120.5465 204.814719 C -118.9715 202.521906 -117.4465 200.191711 -115.959 197.836594 M -118.1465 206.42218 C -116.584 204.091984 -115.0715 201.724406 -113.5965 199.331906 M -115.734 208.01718 C -114.184 205.637141 -112.6715 203.207258 -111.209 200.777375 M -113.309 209.574797 C -111.7715 207.144914 -110.2715 204.677648 -108.809 202.197922 M -110.859 211.095031 C -109.334 208.627766 -107.8465 206.123117 -106.3965 203.606008 M -108.3965 212.602805 C -106.8715 210.085695 -105.3965 207.531203 -103.9715 204.951789 M -105.8965 214.073195 C -104.3965 211.506242 -102.9465 208.914367 -101.534 206.29757 M -103.3965 215.531125 C -101.909 212.914328 -100.4715 210.260148 -99.0715 207.605969 M -100.884 216.92675 C -99.409 214.27257 -97.984 211.593469 -96.609 208.889445 M -98.3465 218.322375 C -96.884 215.618352 -95.4715 212.876945 -94.109 210.123078 M -95.784 219.668156 C -94.3465 216.92675 -92.959 214.147961 -91.609 211.34425 M -93.2215 221.001477 C -91.7965 218.210227 -90.4215 215.381594 -89.0965 212.528039 M -90.634 222.297414 C -89.2215 219.45632 -87.8715 216.577844 -86.5715 213.699367 M -88.034 223.56843 C -86.6465 220.677492 -85.309 217.749172 -84.0215 214.808391 M -85.409 224.789602 C -84.0465 221.861281 -82.734 218.895578 -81.4715 215.917414 M -82.7715 226.010773 C -81.434 223.020148 -80.1465 220.004602 -78.8965 216.976594 M -80.134 227.169641 C -78.809 224.141633 -77.534 221.088703 -76.3215 218.023313 M -77.459 228.316047 C -76.1715 225.238195 -74.9215 222.135422 -73.734 219.032648 M -74.784 229.42507 C -73.5215 226.309836 -72.2965 223.157219 -71.134 219.992141 M -72.0965 230.496711 C -70.8465 227.344094 -69.6465 224.141633 -68.5215 220.939172 M -69.3965 231.54343 C -68.1715 228.340969 -67.009 225.101125 -65.8965 221.861281 M -66.684 232.565227 C -65.484 229.312922 -64.3465 226.023234 -63.259 222.733547 M -63.9465 233.549641 C -62.784 230.247492 -61.6715 226.920422 -60.6215 223.580891 M -61.209 234.496672 C -60.0715 231.14468 -58.9965 227.780227 -57.9715 224.403313 M -58.459 235.418781 C -57.3465 232.029406 -56.2965 228.602648 -55.309 225.175891 M -55.6965 236.303508 C -54.609 232.864289 -53.5965 229.412609 -52.634 225.936008 M -52.9215 237.150852 C -51.8715 233.67425 -50.884 230.172727 -49.959 226.671203 M -50.134 237.973273 C -49.1215 234.446828 -48.159 230.895461 -47.2715 227.344094 M -47.334 238.758313 C -46.359 235.194484 -45.434 231.605734 -44.584 228.004523 M -44.534 239.505969 C -43.584 235.904758 -42.709 232.266164 -41.884 228.640031 M -41.7215 240.228703 C -40.809 236.577648 -39.959 232.914133 -39.1715 229.238156 M -38.909 240.926516 C -38.034 237.225617 -37.209 233.512258 -36.459 229.786438 M -36.0715 241.574484 C -35.234 237.836203 -34.459 234.085461 -33.7465 230.322258 M -33.2215 242.197531 C -32.4215 238.421867 -31.684 234.621281 -31.0215 230.820695 M -30.384 242.770734 C -29.6215 238.957688 -28.9215 235.119719 -28.284 231.28175 M -27.534 243.343938 C -26.7965 239.481047 -26.1465 235.593234 -25.5465 231.705422 M -24.6715 243.854836 C -23.984 239.954563 -23.359 236.029367 -22.809 232.116633 M -21.7965 244.340813 C -21.159 240.403156 -20.584 236.440578 -20.0715 232.478 M -18.9215 244.789406 C -18.3215 240.814367 -17.784 236.814406 -17.3215 232.814445 M -16.0465 245.200617 C -15.484 241.188195 -14.9965 237.150852 -14.584 233.113508 M -13.159 245.599367 C -12.6465 241.537102 -12.1965 237.449914 -11.8215 233.387648 M -10.284 245.948273 C -9.809 241.848625 -9.3965 237.736516 -9.0715 233.624406 M -7.384 246.259797 C -6.959 242.122766 -6.5965 237.973273 -6.309 233.836242 M -4.484 246.546398 C -4.0965 242.371984 -3.784 238.185109 -3.559 233.998234 M -1.584 246.783156 C -1.2465 242.58382 -0.984 238.359563 -0.7965 234.147766 M 1.316 247.007453 C 1.616 242.758273 1.8285 238.496633 1.966 234.247453 M 4.2285 247.181906 C 4.466 242.907805 4.641 238.608781 4.7285 234.322219 M 7.141 247.331438 C 7.3285 243.019953 7.4535 238.683547 7.491 234.372063 M 10.041 247.443586 C 10.191 243.094719 10.266 238.733391 10.2535 234.384523 M 12.966 247.530813 C 13.0535 243.144563 13.0785 238.745852 13.016 234.359602 M 15.466 247.580656 C 15.5285 243.157023 15.5035 238.733391 15.4035 234.309758 M 18.391 247.593117 C 18.391 243.144563 18.316 238.683547 18.166 234.234992 M 21.3035 247.580656 C 21.2535 243.094719 21.116 238.59632 20.916 234.122844 M 24.216 247.530813 C 24.1035 243.019953 23.9285 238.484172 23.666 233.973313 M 27.1285 247.443586 C 26.9785 242.895344 26.741 238.347102 26.4285 233.798859 M 30.041 247.331438 C 29.841 242.745813 29.541 238.160188 29.1785 233.599484 M 32.966 247.181906 C 32.691 242.571359 32.3535 237.948352 31.916 233.350266 M 35.8785 246.994992 C 35.5535 242.359523 35.1535 237.699133 34.666 233.076125 M 38.791 246.770695 C 38.4035 242.097844 37.941 237.424992 37.4035 232.777063 M 41.691 246.509016 C 41.2535 241.823703 40.741 237.12593 40.141 232.453078 M 44.6035 246.234875 C 44.1035 241.51218 43.5285 236.777023 42.866 232.07925 M 47.5035 245.910891 C 46.9535 241.163273 46.3035 236.403195 45.591 231.6805 M 50.4035 245.549523 C 49.791 240.776984 49.091 235.991984 48.3035 231.244367 M 53.3035 245.163234 C 52.6285 240.365773 51.866 235.555852 51.016 230.770852 M 56.191 244.727102 C 55.4535 239.904719 54.6285 235.082336 53.7285 230.297336 M 59.0785 244.266047 C 58.2785 239.418742 57.391 234.571438 56.4285 229.761516 M 61.966 243.78007 C 61.1035 238.907844 60.1535 234.035617 59.116 229.200773 M 64.841 243.256711 C 63.916 238.359563 62.9035 233.462414 61.8035 228.602648 M 67.716 242.695969 C 66.7285 237.773898 65.641 232.864289 64.4785 227.979602 M 70.5785 242.097844 C 69.5285 237.163313 68.3785 232.228781 67.1535 227.331633 M 73.441 241.462336 C 72.316 236.515344 71.1035 231.555891 69.8035 226.646281 M 76.291 240.801906 C 75.1035 235.829992 73.8285 230.858078 72.466 225.923547 M 79.141 240.091633 C 77.8785 235.107258 76.541 230.135344 75.1035 225.188352 M 81.966 239.368898 C 80.6535 234.359602 79.2285 229.362766 77.741 224.403313 M 84.8035 238.608781 C 83.4035 233.587023 81.916 228.565266 80.3535 223.593352 M 87.616 237.811281 C 86.166 232.764602 84.6035 227.730383 82.966 222.746008 M 90.4285 236.963938 C 88.9035 231.917258 87.2785 226.883039 85.5785 221.886203 M 93.2285 236.104133 C 91.6285 231.044992 89.941 225.985852 88.166 220.976555 M 96.0285 235.206945 C 94.3535 230.135344 92.591 225.063742 90.741 220.041984 M 98.8035 234.272375 C 97.066 229.175852 95.2285 224.116711 93.316 219.082492 M 101.5785 233.312883 C 99.766 228.203898 97.8535 223.119836 95.866 218.085617 M 104.341 232.316008 C 102.4535 227.207023 100.466 222.098039 98.4035 217.051359 M 107.0785 231.269289 C 105.1285 226.160305 103.0785 221.063781 100.941 216.017102 M 109.816 230.210109 C 107.791 225.088664 105.666 219.97968 103.4535 214.920539 M 112.541 229.101086 C 110.441 223.979641 108.241 218.870656 105.966 213.823977 M 115.2535 227.979602 C 113.0785 222.845695 110.8035 217.736711 108.4535 212.67757 M 117.9535 226.833195 C 115.7035 221.686828 113.3535 216.552922 110.916 211.493781 M 120.6285 225.624484 C 118.316 220.478117 115.891 215.356672 113.391 210.297531 M 123.316 224.403313 C 120.916 219.256945 118.416 214.123039 115.8285 209.063898 M 125.9535 223.132297 C 123.4785 217.98593 120.916 212.876945 118.266 207.817805 M 128.6035 221.861281 C 126.0535 216.702453 123.4035 211.581008 120.666 206.521867 M 131.2285 220.527961 C 128.6035 215.381594 125.8785 210.272609 123.0785 205.22593 M 133.841 219.194641 C 131.141 214.035813 128.341 208.914367 125.4535 203.867688 M 136.4285 217.786555 C 133.6535 212.652648 130.7785 207.543664 127.8285 202.509445 M 139.016 216.39093 C 136.166 211.257023 133.2035 206.135578 130.166 201.101359 M 141.5785 214.945461 C 138.641 209.811555 135.616 204.715031 132.5035 199.680813 M 144.116 213.450148 C 141.1035 208.328703 138.0035 203.257102 134.8285 198.247805 M 146.6535 211.967297 C 143.566 206.845852 140.3785 201.761789 137.116 196.740031 M 149.1535 210.422141 C 145.991 205.313156 142.7285 200.254016 139.4035 195.25718 M 151.666 208.876984 C 148.416 203.768 145.066 198.696398 141.641 193.699563 M 154.141 207.269523 C 150.816 202.173 147.391 197.12632 143.9035 192.154406 M 156.591 205.637141 C 153.191 200.565539 149.7035 195.53132 146.1285 190.571867 M 159.016 203.979836 C 155.5535 198.920695 151.9785 193.911398 148.341 188.976867 M 161.4535 202.334992 C 157.891 197.263391 154.2285 192.254094 150.5035 187.319563 M 163.8535 200.615383 C 160.216 195.568703 156.4785 190.571867 152.666 185.662258 M 166.2285 198.870852 C 162.516 193.849094 158.7035 188.864719 154.816 183.980031 M 168.591 197.101398 C 164.8035 192.092102 160.916 187.145109 156.9535 182.272883 M 170.9285 195.307023 C 167.0535 190.322648 163.091 185.388117 159.0535 180.540813 M 173.241 193.475266 C 169.3035 188.515813 165.2535 183.606203 161.141 178.78382 M 175.541 191.631047 C 171.516 186.684055 167.391 181.799367 163.2035 177.001906 M 177.816 189.761906 C 173.716 184.839836 169.516 179.967609 165.241 175.19507 M 180.066 187.855383 C 175.891 182.958234 171.6035 178.123391 167.2535 173.363313 M 182.3035 185.936398 C 178.041 181.051711 173.6785 176.241789 169.2535 171.519094 M 184.516 183.980031 C 180.166 179.132727 175.7285 174.335266 171.216 169.637492 M 186.716 182.011203 C 182.291 177.176359 177.7535 172.40382 173.166 167.730969 M 188.8535 179.967609 C 184.366 175.182609 179.7785 170.459914 175.116 165.836906 M 191.0035 177.948937 C 186.4285 173.176398 181.7535 168.478625 177.016 163.880539 M 193.116 175.880422 C 188.466 171.145266 183.716 166.484875 178.916 161.924172 M 195.241 173.811906 C 190.491 169.101672 185.6535 164.453742 180.741 159.9055 M 197.3035 171.693547 C 192.4785 167.020695 187.566 162.410148 182.591 157.91175 M 199.341 169.562727 C 194.4535 164.914797 189.466 160.354094 184.416 155.880617 M 201.3535 167.394523 C 196.391 162.796438 191.3285 158.273117 186.2035 153.837023 M 203.341 165.213859 C 198.3035 160.653156 193.166 156.167219 187.966 151.780969 M 205.316 163.008273 C 200.191 158.484953 194.9785 154.036398 189.7035 149.687531 M 207.266 160.777766 C 202.066 156.291828 196.7785 151.893117 191.416 147.594094 M 209.1785 158.534797 C 203.9035 154.086242 198.541 149.712453 193.1035 145.463273 M 211.0785 156.254445 C 205.716 151.855734 200.2785 147.531789 194.766 143.307531 M 212.941 153.961633 C 207.516 149.600305 201.9785 145.313742 196.4035 141.139328 M 214.791 151.643898 C 209.2785 147.319953 203.666 143.083234 198.0035 138.946203 M 216.616 149.313703 C 211.016 145.027141 205.3285 140.827805 199.591 136.740617 M 218.366 146.921203 C 212.716 142.696945 206.966 138.572375 201.1785 134.547492 M 220.1285 144.553625 C 214.4035 140.36675 208.5785 136.279562 202.7035 132.304523 M 221.866 142.148664 C 216.0535 138.011633 210.1535 133.974289 204.191 130.036633 M 223.591 139.731242 C 217.691 135.644055 211.7035 131.644094 205.666 127.756281 M 225.2285 137.263977 C 219.2785 133.239094 213.2285 129.301438 207.141 125.488391 M 226.891 134.809172 C 220.8535 130.834133 214.7285 126.94632 208.5535 123.170656 M 228.5285 132.329445 C 222.4035 128.40425 216.191 124.566281 209.9285 120.840461 M 230.0785 129.812336 C 223.9035 125.949445 217.641 122.173781 211.3285 118.522727 M 231.666 127.295227 C 225.391 123.48218 219.041 119.756359 212.6535 116.155148 M 233.166 124.740734 C 226.841 120.989992 220.441 117.338938 213.991 113.812492 M 234.6785 122.186242 C 228.2785 118.485344 221.791 114.884133 215.2535 111.407531 M 236.166 119.619289 C 229.6785 115.968234 223.1035 112.429328 216.491 109.00257 M 237.591 117.014953 C 231.041 113.426203 224.416 109.949602 217.741 106.61007 M 239.016 114.410617 C 232.3785 110.884172 225.666 107.457414 218.916 104.167727 M 240.3785 111.756438 C 233.691 108.304758 226.916 104.965227 220.116 101.737844 M 241.741 109.12718 C 234.966 105.725344 228.116 102.435656 221.2285 99.283039 M 243.041 106.448078 C 236.216 103.121008 229.3035 99.906086 222.366 96.828234 M 244.3035 103.756516 C 237.416 100.504211 230.4535 97.364055 223.466 94.360969 M 245.5785 101.077414 C 238.616 97.874953 231.566 94.797102 224.491 91.85632 M 246.791 98.348469 C 239.7535 95.233234 232.666 92.242609 225.5285 89.364133 M 247.991 95.631984 C 240.891 92.579055 233.7035 89.650734 226.491 86.847023 M 249.141 92.890578 C 241.966 89.912414 234.741 87.058859 227.466 84.329914 M 250.2535 90.136711 C 243.0285 87.233313 235.741 84.442062 228.416 81.800344 M 251.366 87.370383 C 244.066 84.54175 236.691 81.825266 229.291 79.245852 M 252.416 84.579133 C 245.0535 81.825266 237.6285 79.196008 230.1785 76.70382 M 253.4285 81.787883 C 246.016 79.108781 238.541 76.554289 231.0285 74.136867 M 254.441 78.984172 C 246.9535 76.379836 239.391 73.900109 231.816 71.569914 M 255.391 76.168 C 247.841 73.63843 240.241 71.24593 232.6035 68.9905 M 256.3035 73.326906 C 248.7035 70.884563 241.041 68.566828 233.366 66.398625 M 257.216 70.485813 C 249.5535 68.118234 241.816 65.887727 234.066 63.794289 M 258.0785 67.632258 C 250.341 65.351906 242.566 63.196164 234.766 61.189953 M 258.891 64.766242 C 251.116 62.573117 243.2785 60.504602 235.4285 58.585617 M 259.666 61.887766 C 251.841 59.781867 243.9535 57.800578 236.0535 55.96882 M 260.4535 59.009289 C 252.5535 56.978156 244.591 55.084094 236.6285 53.327102 M 261.166 56.105891 C 253.216 54.161984 245.216 52.367609 237.2035 50.697844 M 261.8535 53.202492 C 253.8535 51.345812 245.791 49.626203 237.7285 48.056125 M 262.5035 50.299094 C 254.4535 48.529641 246.341 46.897258 238.241 45.414406 M 263.141 47.383234 C 255.0285 45.701008 246.8535 44.155852 238.691 42.760227 M 263.716 44.454914 C 255.5535 42.859914 247.341 41.414445 239.1285 40.118508 M 264.266 41.514133 C 256.0535 40.01882 247.791 38.660578 239.541 37.451867 M 264.7785 38.573352 C 256.516 37.165266 248.216 35.906711 239.916 34.785227 M 265.2535 35.620109 C 256.9535 34.311711 248.6035 33.140383 240.266 32.118586 M 265.716 32.666867 C 257.3535 31.445695 248.9535 30.374055 240.566 29.439484 M 266.1285 29.713625 C 257.716 28.57968 249.2785 27.595266 240.841 26.772844 M 266.5035 26.735461 C 258.0535 25.713664 249.566 24.828937 241.091 24.093742 M 266.841 23.769758 C 258.3535 22.835187 249.8285 22.050148 241.316 21.414641 M 267.1535 20.791594 C 258.616 19.956711 250.0535 19.271359 241.5035 18.723078 M 267.4285 17.825891 C 258.8535 17.078234 250.241 16.49257 241.641 16.043977 M 267.666 14.847727 C 259.0535 14.199758 250.4035 13.70132 241.766 13.364875 M 267.866 11.869563 C 259.216 11.321281 250.5285 10.922531 241.8535 10.685773 M 268.041 8.878938 C 259.341 8.430344 250.616 8.143742 241.916 7.994211 M 268.166 5.888312 C 259.441 5.539406 250.6785 5.352492 241.9535 5.302648 M 268.266 2.910148 C 259.5035 2.648469 250.716 2.561242 241.941 2.623547 M 268.3285 -0.0804766 C 259.541 -0.230008 250.7035 -0.230008 241.916 -0.0680156 M 268.366 -3.071102 C 259.5285 -3.120945 250.666 -3.008797 241.841 -2.747117 M 268.366 -6.074187 C 259.491 -6.011883 250.6035 -5.800047 241.741 -5.43868 M 268.3285 -9.064812 C 259.4285 -8.90282 250.5035 -8.578836 241.616 -8.117781 M 268.2535 -12.055438 C 259.3285 -11.781297 250.366 -11.370086 241.4535 -10.796883 M 268.1535 -15.046063 C 259.191 -14.672234 250.2035 -14.148875 241.266 -13.463523 M 268.0035 -18.036687 C 259.016 -17.550711 250.016 -16.915203 241.0535 -16.130164 M 267.8285 -21.027313 C 258.816 -20.441648 249.791 -19.693992 240.791 -18.796805 M 267.616 -24.017937 C 258.5785 -23.320125 249.516 -22.472781 240.516 -21.463445 M 267.366 -27.008563 C 258.3035 -26.198602 249.2285 -25.239109 240.191 -24.130086 M 267.091 -29.999188 C 258.0035 -29.089539 248.9035 -28.005437 239.841 -26.784266 M 266.7785 -32.977352 C 257.666 -31.955555 248.541 -30.771766 239.466 -29.425984 M 266.416 -35.955516 C 257.291 -34.82157 248.1535 -33.525633 239.066 -32.080164 M 266.0285 -38.93368 C 256.8785 -37.687586 247.716 -36.2795 238.6285 -34.721883 M 265.6035 -41.911844 C 256.441 -40.553602 247.266 -39.033367 238.1535 -37.351141 M 265.1535 -44.877547 C 255.966 -43.407156 246.7785 -41.762313 237.641 -39.980398 M 264.641 -47.84325 C 255.4535 -46.260711 246.2535 -44.503719 237.1285 -42.597195 M 264.116 -50.796492 C 254.916 -49.089344 245.7035 -47.232664 236.5535 -45.213992 M 263.566 -53.749734 C 254.341 -51.930438 245.116 -49.949148 235.966 -47.805867 M 262.966 -56.690516 C 253.7285 -54.75907 244.491 -52.653172 235.3285 -50.410203 M 262.341 -59.631297 C 253.091 -57.587703 243.841 -55.369656 234.666 -52.989617 M 261.6535 -62.559617 C 252.4035 -60.391414 243.166 -58.061219 234.0035 -55.581492 M 260.966 -65.487938 C 251.7035 -63.195125 242.4535 -60.752781 233.2785 -58.148445 M 260.2285 -68.403797 C 250.966 -65.998836 241.7035 -63.431883 232.5285 -60.702937 M 259.4285 -71.307195 C 250.1785 -68.777625 240.941 -66.098523 231.7785 -63.25743 M 258.641 -74.210594 C 249.366 -71.568875 240.1285 -68.765164 230.9535 -65.799461 M 257.8035 -77.101531 C 248.5285 -74.335203 239.2785 -71.406883 230.1035 -68.329031 M 256.941 -79.980008 C 247.666 -77.101531 238.4035 -74.048602 229.2285 -70.846141 M 256.0035 -82.846023 C 246.741 -79.855398 237.516 -76.677859 228.3535 -73.36325 M 255.066 -85.712039 C 245.8035 -82.584344 236.566 -79.294656 227.416 -75.855438 M 254.1035 -88.565594 C 244.841 -85.313289 235.6035 -81.898992 226.4535 -78.335164 M 253.066 -91.394227 C 243.8285 -88.029773 234.616 -84.503328 225.491 -80.814891 M 252.041 -94.222859 C 242.791 -90.733797 233.591 -87.082742 224.466 -83.269695 M 250.9285 -97.014109 C 241.716 -93.425359 232.541 -89.649695 223.4535 -85.736961 M 249.8285 -99.830281 C 240.616 -96.104461 231.441 -92.204188 222.366 -88.166844 M 248.7035 -102.621531 C 239.491 -98.771102 230.316 -94.746219 221.2535 -90.571805 M 247.491 -105.387859 C 238.316 -101.425281 229.1785 -97.28825 220.1535 -93.001688 M 246.3035 -108.154188 C 237.1285 -104.054539 228.0035 -99.792898 218.966 -95.381727 M 245.0285 -110.883133 C 235.891 -106.683797 226.8035 -102.297547 217.816 -97.774227 M 243.7785 -113.624539 C 234.641 -109.300594 225.5535 -104.777273 216.5785 -100.129344 M 242.441 -116.328563 C 233.341 -111.880008 224.3035 -107.269461 215.366 -102.496922 M 241.116 -119.057508 C 232.0285 -114.471883 223.0035 -109.711805 214.0785 -104.814656 M 239.716 -121.724148 C 230.666 -117.026375 221.691 -112.166609 212.816 -107.157313 M 238.341 -124.415711 C 229.3035 -119.580867 220.3285 -114.584031 211.466 -109.437664 M 236.8785 -127.044969 C 227.8785 -122.110438 218.9535 -117.001453 210.141 -111.742938 M 235.441 -129.699148 C 226.4535 -124.627547 217.5285 -119.381492 208.7285 -113.998367 M 233.916 -132.315945 C 224.9785 -127.132195 216.1035 -121.761531 207.3535 -116.266258 M 232.3535 -134.90782 C 223.466 -129.599461 214.6535 -124.129109 205.9535 -118.521688 M 230.8285 -137.512156 C 221.9535 -132.066727 213.141 -126.459305 204.4535 -120.714813 M 229.216 -140.054188 C 220.391 -134.50907 211.6285 -128.7895 203.0035 -122.932859 M 227.5785 -142.596219 C 218.791 -136.938953 210.091 -131.094773 201.516 -125.125984 M 225.966 -145.163172 C 217.191 -139.356375 208.5035 -133.375125 199.941 -127.269266 M 224.266 -147.655359 C 215.541 -141.736414 206.916 -135.655477 198.4035 -129.425008 M 222.541 -150.135086 C 213.866 -144.103992 205.291 -137.898445 196.841 -131.568289 M 220.791 -152.589891 C 212.166 -146.446648 203.641 -140.128953 195.241 -133.686648 M 219.066 -155.082078 C 210.466 -148.789305 201.941 -142.334539 193.566 -135.742703 M 217.2535 -157.511961 C 208.7035 -151.094578 200.241 -144.515203 191.916 -137.82368 M 215.416 -159.916922 C 206.916 -153.387391 198.516 -146.695867 190.2535 -139.867273 M 213.5535 -162.296961 C 205.1035 -155.655281 196.766 -148.851609 188.5535 -141.910867 M 211.666 -164.664539 C 203.2785 -157.89825 194.9785 -150.969969 186.841 -143.917078 M 209.7535 -167.007195 C 201.416 -160.128758 193.1785 -153.075867 185.091 -145.910828 M 207.816 -169.32493 C 199.5285 -162.334344 191.3535 -155.156844 183.316 -147.867195 M 205.841 -171.630203 C 197.616 -164.515008 189.5035 -157.225359 181.5285 -149.811102 M 203.8535 -173.910555 C 195.691 -166.67075 187.616 -159.256492 179.7035 -151.730086 M 201.791 -176.128602 C 193.7035 -168.789109 185.7285 -161.300086 177.916 -153.686453 M 199.741 -178.37157 C 191.716 -170.907469 183.8035 -163.293836 176.041 -155.555594 M 197.6785 -180.589617 C 189.716 -173.013367 181.8535 -165.262664 174.1535 -157.399813 M 195.5535 -182.75782 C 187.666 -175.069422 179.891 -167.219031 172.266 -159.268953 M 193.466 -184.963406 C 185.616 -177.125477 177.8785 -169.138016 170.3035 -161.038406 M 191.291 -187.081766 C 183.5285 -179.144148 175.866 -171.057 168.3785 -162.845242 M 189.1035 -189.175203 C 181.416 -181.137898 173.8285 -172.938602 166.416 -164.639617 M 186.891 -191.243719 C 179.2785 -183.094266 171.7785 -174.795281 164.4535 -166.384148 M 184.666 -193.299773 C 177.116 -185.038172 169.7035 -176.627039 162.4535 -168.116219 M 182.4035 -195.330906 C 174.941 -186.957156 167.6035 -178.433875 160.441 -169.810906 M 180.1285 -197.324656 C 172.741 -188.851219 165.4785 -180.215789 158.4035 -171.480672 M 177.8285 -199.305945 C 170.516 -190.720359 163.341 -181.972781 156.341 -173.137977 M 175.5035 -201.262313 C 168.2785 -192.564578 161.1785 -183.704852 154.2535 -174.757898 M 173.166 -203.193758 C 166.016 -194.371414 158.991 -185.412 152.1535 -176.352898 M 170.791 -205.100281 C 163.716 -196.165789 156.791 -187.094227 150.041 -177.922977 M 168.416 -206.981883 C 161.416 -197.935242 154.566 -188.73907 147.891 -179.455672 M 165.991 -208.838563 C 159.091 -199.679773 152.316 -190.371453 145.7285 -180.975906 M 163.566 -210.67032 C 156.741 -201.386922 150.0535 -191.966453 143.5535 -182.458758 M 161.0785 -212.402391 C 154.3535 -203.056688 147.791 -193.561453 141.4035 -183.978992 M 158.6035 -214.184305 C 151.966 -204.713992 145.491 -195.094148 139.191 -185.399539 M 156.116 -215.928836 C 149.566 -206.346375 143.166 -196.614383 136.966 -186.807625 M 153.566 -217.586141 C 147.1285 -207.928914 140.8535 -198.122156 134.7535 -188.240633 M 151.041 -219.280828 C 144.691 -209.498992 138.491 -199.580086 132.491 -189.586414 M 148.491 -220.938133 C 142.2285 -211.044148 136.1285 -201.013094 130.216 -190.894813 M 145.8785 -222.508211 C 139.741 -212.539461 133.7535 -202.433641 127.9535 -192.253055 M 143.291 -224.115672 C 137.241 -214.034773 131.341 -203.804344 125.6535 -193.511609 M 140.6535 -225.635906 C 134.716 -215.467781 128.941 -205.175047 123.366 -194.807547 M 138.0285 -227.181063 C 132.1785 -216.900789 126.5035 -206.483445 121.0285 -196.003797 M 135.3535 -228.638992 C 129.6285 -218.283953 124.066 -207.791844 118.7035 -197.249891 M 132.691 -230.121844 C 127.066 -219.654656 121.6035 -209.050398 116.341 -198.383836 M 129.9785 -231.517469 C 124.466 -220.975516 119.1285 -210.296492 113.991 -199.567625 M 127.291 -232.938016 C 121.8785 -222.283914 116.641 -211.492742 111.6035 -200.651727 M 124.541 -234.283797 C 119.2535 -223.542469 114.141 -212.676531 109.2285 -201.773211 M 121.816 -235.642039 C 116.6285 -224.788563 111.616 -213.822938 106.816 -202.795008 M 119.041 -236.913055 C 113.9785 -225.984813 109.091 -214.944422 104.416 -203.854188 M 116.2785 -238.221453 C 111.316 -227.181063 106.541 -216.028523 101.966 -204.81368 M 113.4785 -239.417703 C 108.641 -228.315008 103.991 -217.087703 99.541 -205.823016 M 110.6535 -240.601492 C 105.9535 -229.424031 101.4285 -218.121961 97.1035 -206.782508 M 107.841 -241.797742 C 103.2535 -230.508133 98.841 -219.106375 94.641 -207.667234 M 105.0035 -242.919227 C 100.541 -231.554852 96.2535 -220.078328 92.1785 -208.576883 M 102.166 -244.053172 C 97.816 -232.589109 93.6535 -221.012898 89.691 -209.399305 M 99.3035 -245.099891 C 95.0785 -233.561063 91.041 -221.922547 87.216 -210.234188 M 96.416 -246.109227 C 92.316 -234.508094 88.416 -222.794813 84.7285 -211.056609 M 93.516 -247.093641 C 89.5535 -235.417742 85.791 -223.642156 82.2285 -211.841648 M 90.6285 -248.090516 C 86.791 -236.31493 83.141 -224.439656 79.716 -212.539461 M 87.716 -249.000164 C 84.0035 -237.162273 80.491 -225.224695 77.2035 -213.262195 M 84.791 -249.884891 C 81.2035 -237.984695 77.8285 -225.984813 74.6785 -213.960008 M 81.8535 -250.782078 C 78.416 -238.782195 75.166 -226.682625 72.141 -214.570594 M 78.9035 -251.592039 C 75.591 -239.529852 72.4785 -227.380438 69.591 -215.206102 M 75.941 -252.377078 C 72.766 -240.252586 69.8035 -228.028406 67.0535 -215.804227 M 72.9785 -253.112273 C 69.941 -240.925477 67.1035 -228.651453 64.5035 -216.364969 M 70.016 -253.85993 C 67.1035 -241.585906 64.416 -229.237117 61.9285 -216.863406 M 67.0285 -254.545281 C 64.266 -242.208953 61.7035 -229.797859 59.366 -217.374305 M 64.0285 -255.180789 C 61.4035 -242.794617 58.991 -230.321219 56.8035 -217.84782 M 61.0285 -255.791375 C 58.541 -243.342898 56.2785 -230.819656 54.2285 -218.296414 M 58.0285 -256.3895 C 55.6785 -243.866258 53.541 -231.26825 51.641 -218.670242 M 55.0035 -256.92532 C 52.8035 -244.352234 50.816 -231.704383 49.0535 -219.056531 M 51.9785 -257.436219 C 49.9285 -244.800828 48.091 -232.103133 46.466 -219.405438 M 48.9535 -257.897273 C 47.041 -245.212039 45.341 -232.4645 43.8785 -219.716961 M 45.916 -258.333406 C 44.1535 -245.598328 42.6035 -232.788484 41.291 -220.003563 M 42.891 -258.744617 C 41.266 -245.947234 39.8535 -233.087547 38.6785 -220.24032 M 39.841 -259.105984 C 38.366 -246.258758 37.1035 -233.361688 36.0785 -220.464617 M 36.791 -259.429969 C 35.466 -246.545359 34.3535 -233.585984 33.4785 -220.663992 M 33.741 -259.729031 C 32.566 -246.782117 31.6035 -233.79782 30.8785 -220.825984 M 30.6785 -259.97825 C 29.6535 -247.006414 28.841 -233.972273 28.266 -220.963055 M 27.6285 -260.202547 C 26.741 -247.180867 26.091 -234.109344 25.666 -221.062742 M 24.566 -260.401922 C 23.841 -247.330398 23.3285 -234.209031 23.0535 -221.125047 M 21.5035 -260.538992 C 20.9285 -247.430086 20.566 -234.283797 20.441 -221.16243 M 18.441 -260.663602 C 18.016 -247.517313 17.8035 -234.32118 17.841 -221.174891 M 15.3785 -260.738367 C 15.091 -247.554695 15.041 -234.333641 15.2285 -221.149969 " transform="matrix(0.3125,0,0,-0.31348,71.034063,77.877116)"/>
</g>
</svg>
